<?xml version="1.0" encoding="UTF-8"?>
<svg width="100px" height="100px" viewBox="0 0 100 100" version="1.1" xmlns="http://www.w3.org/2000/svg" xmlns:xlink="http://www.w3.org/1999/xlink">
    <g id="Page-1" stroke="none" stroke-width="1" fill="none" fill-rule="evenodd">
        <g id="10y_success" fill-rule="nonzero">
            <circle id="Oval-Copy" fill="#EAE8E2" cx="50" cy="50" r="50"></circle>
            <g id="1496768763_Accept_check_ok_success_tick_yes">
                <g id="Group">
                    <circle id="Oval" fill="#E43A35" opacity="0.900000036" cx="50" cy="50" r="50"></circle>
                    <path d="M50,91.66677 C27.0251036,91.66677 8.33333434,72.9749978 8.33333434,50.0001013 C8.33333434,27.0253122 27.0251036,8.33343863 50,8.33343863 C72.9757309,8.33343863 91.6666687,27.0253137 91.6666687,50.0001013 C91.6666687,72.9749978 72.9757309,91.66677 50,91.66677 Z" id="Shape" fill="#EE534F"></path>
                </g>
                <path d="M51.5,28 C38.5213144,28 28,38.5213144 28,51.5 C28,64.4784765 38.5213144,75 51.5,75 C64.4785781,75 75,64.4784765 75,51.5 C75,38.5213144 64.4785781,28 51.5,28 Z M46.8626681,62.1592846 L36.8959509,52.1925704 L38.2806763,50.8079496 L46.8626681,59.390049 L64.7190129,41.5335965 L66.1036337,42.9182173 L46.8626681,62.1592846 Z" id="Shape" fill="#000000" opacity="0.3"></path>
                <path d="M49.5,26 C36.5213144,26 26,36.5213144 26,49.5 C26,62.4784765 36.5213144,73 49.5,73 C62.4785781,73 73,62.4784765 73,49.5 C73,36.5213144 62.4785781,26 49.5,26 Z M44.8626681,60.1592846 L34.8959509,50.1925704 L36.2806763,48.8079526 L44.8626681,57.390049 L62.7190129,39.5335965 L64.1036337,40.9182173 L44.8626681,60.1592846 Z" id="Shape" fill="#FFFFFF"></path>
            </g>
        </g>
    </g>
</svg>