<?xml version="1.0" encoding="UTF-8"?>
<svg width="100px" height="100px" viewBox="0 0 100 100" version="1.1" xmlns="http://www.w3.org/2000/svg" xmlns:xlink="http://www.w3.org/1999/xlink">
    <g id="Page-1" stroke="none" stroke-width="1" fill="none" fill-rule="evenodd">
        <g id="5m_start" fill-rule="nonzero">
            <circle id="Oval" fill="#EAE8E2" cx="50" cy="50" r="50"></circle>
            <g id="1496769206_Activities_history_log_past_recent">
                <g id="Group">
                    <circle id="Oval" fill="#7DB343" opacity="0.900000036" cx="50" cy="50" r="50"></circle>
                    <path d="M50,91.66677 C27.0251036,91.66677 8.33333434,72.9749978 8.33333434,50.0001013 C8.33333434,27.0252049 27.0251036,8.33343715 50,8.33343715 C72.9757309,8.33343715 91.6666687,27.0252079 91.6666687,50.0000998 C91.6666687,72.9749918 72.9757309,91.66677 50,91.66677 Z" id="Shape" fill="#8BC24A"></path>
                </g>
                <g id="Group" transform="translate(28.125000, 28.125000)" fill="#000000" opacity="0.3">
                    <polygon id="Shape" points="22.5000024 5.78885377 22.5000024 24.5865643 37.286669 24.5865643 37.286669 22.7115631 24.3749976 22.7115631 24.3749976 5.78885377"></polygon>
                    <path d="M46.5810418,19.7177082 L44.7298944,20.0125009 C44.9088514,21.1385429 44.9999988,22.2903132 44.9999988,23.4375 C44.9999988,35.3273988 35.3269994,44.9999988 23.4375,44.9999988 C11.5479171,44.9999988 1.87500119,35.3273988 1.87500119,23.4375 C1.87500119,11.5476012 11.5479171,1.87500119 23.4375,1.87500119 C30.886668,1.87500119 37.6753151,5.6569785 41.617918,11.8569791 L34.1079175,10.3006244 L33.7270856,12.1370822 L44.2043722,14.3087506 L46.3756263,3.83145811 L44.5398927,3.45062615 L43.0526018,10.6251031 C38.7470841,4.02031242 31.4435422,0 23.4375,0 C10.513854,0 0,10.513854 0,23.4375 C0,36.3610446 10.513854,46.875 23.4375,46.875 C36.3610387,46.875 46.875,36.3610446 46.875,23.4375 C46.875,22.1923947 46.7760384,20.9408343 46.5810418,19.7177082 Z" id="Shape"></path>
                </g>
                <g id="Group" transform="translate(26.562500, 26.562500)" fill="#FFFFFF">
                    <polygon id="Shape" points="22.4999994 5.78885377 22.4999994 24.5865643 37.286669 24.5865643 37.286669 22.7115631 24.3749976 22.7115631 24.3749976 5.78885377"></polygon>
                    <path d="M46.5810418,19.7177082 L44.7298944,20.0125009 C44.9088514,21.1385429 44.9999988,22.2903132 44.9999988,23.4375 C44.9999988,35.3273988 35.3269994,44.9999988 23.4375,44.9999988 C11.5479171,44.9999988 1.87500119,35.3273988 1.87500119,23.4375 C1.87500119,11.5476012 11.5479171,1.87500119 23.4375,1.87500119 C30.886668,1.87500119 37.6753151,5.6569785 41.617918,11.8569791 L34.1079175,10.3006244 L33.7270856,12.1370822 L44.2043722,14.3087506 L46.3756263,3.83145811 L44.5398927,3.45062615 L43.0526018,10.6251031 C38.7470841,4.02031242 31.4435422,0 23.4375,0 C10.513854,0 0,10.513854 0,23.4375 C0,36.3610446 10.513854,46.875 23.4375,46.875 C36.3610387,46.875 46.875,36.3610446 46.875,23.4375 C46.875,22.1923947 46.7760384,20.9408343 46.5810418,19.7177082 Z" id="Shape"></path>
                </g>
            </g>
        </g>
    </g>
</svg>