<?xml version="1.0" encoding="UTF-8"?>
<svg width="100px" height="100px" viewBox="0 0 100 100" version="1.1" xmlns="http://www.w3.org/2000/svg" xmlns:xlink="http://www.w3.org/1999/xlink">
    <g id="Page-1" stroke="none" stroke-width="1" fill="none" fill-rule="evenodd">
        <g id="b_enabler" fill-rule="nonzero">
            <circle id="Oval" fill="#EAE8E2" cx="50" cy="50" r="50"></circle>
            <g id="Group-19">
                <g id="1496769138_Add_cloud_new_create_cloud_computing_plus">
                    <g id="Group">
                        <circle id="Oval" fill="#9C28B1" cx="50" cy="50" r="50"></circle>
                        <path d="M50,91.66677 C27.0250946,91.66677 8.33333135,72.9749978 8.33333135,50.0001013 C8.33333135,27.0253122 27.0250931,8.33343863 50,8.33343863 C72.975719,8.33343863 91.6666687,27.0253137 91.6666687,50.0001013 C91.6666687,72.9749978 72.975719,91.66677 50,91.66677 Z" id="Shape" fill="#AB46BC"></path>
                    </g>
                    <path d="M67.7008212,51.0914564 C68.2811379,49.7634381 68.6078012,48.2993752 68.6078012,46.7575013 C68.6078012,40.7694787 63.7536347,35.9153121 57.7656269,35.9153121 C54.885304,35.9153121 52.2720754,37.04198 50.331968,38.8745844 C49.5841562,38.4872913 48.736763,38.2647902 47.8363454,38.2647902 C45.5338448,38.2647902 43.569991,39.6977097 42.7760422,41.7182296 C42.2219694,41.5954172 41.6474908,41.5268749 41.0563439,41.5268749 C36.6859287,41.5268749 33.1430107,45.0696885 33.1430107,49.4402081 C33.1430107,50.1716673 33.250305,50.8766651 33.4360331,51.5489578 C30.3396791,52.680105 28.125,55.6430221 28.125,59.1309369 L28.125,59.1309369 C28.125,63.5927081 31.7420751,67.2097921 36.203742,67.2097921 L66.9211388,67.2097921 C71.3830113,67.2097921 75,63.5927081 75,59.1309369 L75,59.1309369 C75,54.9323976 71.7966557,51.4840603 67.7008212,51.0914564 Z M59.8369718,54.6257317 L53.5155118,54.6257317 L53.5155118,60.947293 L51.5623868,60.947293 L51.5623868,54.6257317 L45.241034,54.6257317 L45.241034,52.6726067 L51.5623868,52.6726067 L51.5623868,46.351251 L53.5155118,46.351251 L53.5155118,52.6726067 L59.8369718,52.6726067 L59.8369718,54.6257317 Z" id="Shape" fill="#000000" opacity="0.3"></path>
                    <path d="M66.1383271,49.5289594 C66.7186379,48.2009381 67.0453012,46.7368752 67.0453012,45.1950014 C67.0453012,39.2069787 62.1911347,34.3528122 56.2031269,34.3528122 C53.322804,34.3528122 50.7095754,35.47948 48.7694711,37.3120844 C48.0216563,36.9247913 47.174263,36.7022902 46.2738454,36.7022902 C43.9713448,36.7022902 42.007491,38.1352097 41.2135422,40.1557296 C40.6594694,40.0329173 40.0849909,39.9643749 39.4938439,39.9643749 C35.1234287,39.9643749 31.5805108,43.5071886 31.5805108,47.8777081 C31.5805108,48.6091673 31.6878051,49.3141681 31.8735332,49.9864578 C28.7771791,51.117605 26.5625,54.0805221 26.5625,57.5684369 L26.5625,57.5684369 C26.5625,62.0302081 30.1795751,65.6472921 34.641242,65.6472921 L65.3586388,65.6472921 C69.8205113,65.6472921 73.4375,62.0302081 73.4375,57.5684369 L73.4375,57.5684369 C73.4375,53.3698976 70.2341557,49.9215633 66.1383271,49.5289594 Z" id="Shape" fill="#FFFFFF"></path>
                </g>
            </g>
        </g>
    </g>
</svg>