<svg width="24" height="24" viewBox="0 0 24 24" fill="none" xmlns="http://www.w3.org/2000/svg">
<g id="24/search">
<path id="Vector" d="M16.535 15.12L20.707 19.293C20.8892 19.4816 20.99 19.7342 20.9877 19.9964C20.9854 20.2586 20.8803 20.5094 20.6948 20.6948C20.5094 20.8803 20.2586 20.9854 19.9964 20.9877C19.7342 20.99 19.4816 20.8892 19.293 20.707L15.121 16.535C13.6561 17.6419 11.8258 18.1517 9.99956 17.9615C8.17336 17.7713 6.48734 16.8953 5.28188 15.5104C4.07643 14.1255 3.44134 12.3348 3.50483 10.4998C3.56832 8.66481 4.32567 6.92227 5.62397 5.62397C6.92227 4.32567 8.66481 3.56832 10.4998 3.50483C12.3348 3.44134 14.1255 4.07643 15.5104 5.28188C16.8953 6.48734 17.7713 8.17336 17.9615 9.99956C18.1517 11.8258 17.6419 13.6561 16.535 15.121V15.12ZM10.75 16C12.1424 16 13.4778 15.4469 14.4623 14.4623C15.4469 13.4778 16 12.1424 16 10.75C16 9.35765 15.4469 8.02229 14.4623 7.03772C13.4778 6.05315 12.1424 5.50003 10.75 5.50003C9.35765 5.50003 8.02229 6.05315 7.03772 7.03772C6.05315 8.02229 5.50003 9.35765 5.50003 10.75C5.50003 12.1424 6.05315 13.4778 7.03772 14.4623C8.02229 15.4469 9.35765 16 10.75 16Z" fill="#ABACAC"/>
</g>
</svg>
